#N canvas 291 151 450 300 10;
#X obj 94 140 + 500;
#X obj 94 162 osc~;
#X obj 103 241 dac~;
#X obj 99 82 r slider;
#X obj 156 164 r switch;
#X obj 94 118 * 4500;
#X floatatom 36 133 5 0 0 0 - - -, f 5;
#X obj 198 121 print;
#X msg 298 82 \; pd dsp 1;
#X obj 302 53 loadbang;
#X obj 296 133 osc~ 440;
#X connect 0 0 1 0;
#X connect 1 0 2 0;
#X connect 1 0 2 1;
#X connect 3 0 5 0;
#X connect 3 0 7 0;
#X connect 4 0 7 0;
#X connect 5 0 0 0;
#X connect 6 0 1 0;
#X connect 9 0 8 0;
